# xmcd
#
# Track frame offsets: 
#        183
#        18973
#        36085
#        61970
#        82893
#        99918
#        115218
#        144003
#        163465
#
# Disc length: 2515 seconds
#
# Revision: 18
# Processed by: cddbd v1.5.2PL0 Copyright (c) Steve Scherf et al.
# Submitted via: ExactAudioCopyFreeDBPlugin 1.0
#
DISCID=6609d109
DTITLE=Robben Ford - Talk To Your Daughter
DYEAR=1988
DGENRE=Blues
TTITLE0=Talk To Your Daughter
TTITLE1=Wild About You (Can't Hold Out Much Longer)
TTITLE2=Help The Poor
TTITLE3=Ain't Got Nothin' But The Blues
TTITLE4=Born Under A Bad Sign
TTITLE5=I Got Over It
TTITLE6=Revelation
TTITLE7=Getaway
TTITLE8=Can't Let Her Go
EXTD=1988 - Warner Bros. Records YEAR: 1988
EXTT0=
EXTT1=
EXTT2=
EXTT3=
EXTT4=
EXTT5=
EXTT6=
EXTT7=
EXTT8=
PLAYORDER=
